<svg width="20" height="20" viewBox="0 0 20 20" fill="none" xmlns="http://www.w3.org/2000/svg">
<path d="M10 19C14.9627 19 19 14.9626 19 10C19 5.03743 14.9627 1 10 1C5.03734 1 1 5.03743 1 10C1 14.9626 5.03734 19 10 19ZM11.2288 18.3383C12.396 17.5926 13.3331 15.9109 13.8298 13.7143H17.5718C16.3678 16.1531 14.0182 17.9297 11.2288 18.3383ZM17.9335 7.13086C18.2592 8.02686 18.4375 8.99286 18.4375 10C18.4375 11.1109 18.2193 12.1709 17.8266 13.1429H13.9473C14.1228 12.1909 14.2188 11.156 14.2188 10.0677C14.2188 9.03657 14.1321 8.05343 13.9741 7.14286H17.875C17.8958 7.14286 17.9141 7.13514 17.9335 7.13086ZM17.7051 6.57143H13.8632C13.3337 4.10514 12.2542 2.26286 10.9143 1.62171C13.9499 1.95029 16.5062 3.89343 17.7051 6.57143ZM10 1.95286C11.4195 2.07 12.6691 3.948 13.2726 6.57143H10V1.95286ZM10 7.14286H13.3905C13.5609 8.05571 13.6562 9.04257 13.6562 10.0677C13.6562 11.1491 13.5508 12.1889 13.3621 13.1429H10V7.14286ZM10 13.7143H13.2361C12.6198 16.2586 11.3922 18.0677 10 18.1826V13.7143ZM2.42819 13.7143H5.88897C6.37159 15.8489 7.27019 17.4974 8.39153 18.2731C5.76944 17.7654 3.57709 16.0417 2.42819 13.7143ZM9.4375 18.1366C8.16259 17.8189 7.057 16.0857 6.48269 13.7143H9.4375V18.1366ZM9.4375 13.1429H6.35669C6.16797 12.1889 6.0625 11.1491 6.0625 10.0677C6.0625 9.04257 6.15784 8.05543 6.32828 7.14286H9.4375V13.1429ZM9.4375 6.57143H6.44612C7.00947 4.12286 8.13559 2.32343 9.4375 1.99914V6.57143ZM8.70794 1.67029C7.41278 2.35229 6.37244 4.16486 5.8555 6.57143H2.29488C3.44406 4.00514 5.83862 2.11257 8.70794 1.67029ZM2.125 7.14286H5.74469C5.58662 8.05343 5.5 9.03657 5.5 10.0677C5.5 11.1557 5.59591 12.1906 5.77141 13.1429H2.40625C2.32806 13.1429 2.25775 13.1751 2.20684 13.2274C1.79228 12.2329 1.5625 11.1429 1.5625 10C1.5625 8.99286 1.74081 8.02686 2.0665 7.13086C2.08591 7.13514 2.10419 7.14286 2.125 7.14286Z" fill="#1E3932" stroke="#1E3932" stroke-width="0.5"/>
</svg>
